<svg width="25" height="24" fill="none" xmlns="http://www.w3.org/2000/svg">
  <rect x=".862" width="24" height="24" rx="12" fill="#fff"/>
  <path fill-rule="evenodd" clip-rule="evenodd" d="M17.55 8.24c.517.131.923.52 1.061 1.013.251.894.251 2.76.251 2.76s0 1.865-.25 2.759c-.139.493-.545.865-1.062.997-.935.24-4.688.24-4.688.24s-3.752 0-4.688-.24c-.517-.132-.923-.504-1.061-.997-.25-.894-.25-2.76-.25-2.76s0-1.865.25-2.759a1.47 1.47 0 0 1 1.06-1.013C9.11 8 12.864 8 12.864 8s3.752 0 4.687.24Zm-5.915 2.079v3.387l3.136-1.694-3.136-1.693Z" fill="#001414"/>
</svg>
